<svg xmlns="http://www.w3.org/2000/svg" viewBox="0 0 24 24" fill="none">
<path d="M12 0C18.6274 0 24 5.37258 24 12L23.9961 12.3096C23.8319 18.7939 18.5239 24 12 24L11.6904 23.9961C5.30896 23.8345 0.165499 18.691 0.00390625 12.3096L0 12C2.06162e-06 5.37258 5.37258 0 12 0ZM12 2C6.47715 2 2 6.47715 2 12C2 17.5229 6.47715 22 12 22C17.5228 22 22 17.5229 22 12C22 6.47715 17.5228 2 12 2ZM12 5C12.5523 5 13 5.44772 13 6V11H18C18.5523 11 19 11.4477 19 12C19 12.5523 18.5523 13 18 13H13V18C13 18.5523 12.5523 19 12 19C11.4477 19 11 18.5523 11 18V13H6C5.44772 13 5.00001 12.5523 5 12C5 11.4477 5.44772 11 6 11H11V6C11 5.44772 11.4477 5 12 5Z" fill="#ACACAC"/>
</svg>