<svg xmlns="http://www.w3.org/2000/svg" viewBox="0 0 50 50">
    <path style="text-indent:0;text-align:start;line-height:normal;text-transform:none;block-progression:tb;-inkscape-font-specification:Sans" d="M 37.90625 8.96875 A 1.0001 1.0001 0 0 0 37.78125 9 A 1.0001 1.0001 0 0 0 37.21875 9.375 L 12.9375 38.5 L 1.71875 27.28125 A 1.016466 1.016466 0 1 0 0.28125 28.71875 L 12.28125 40.71875 A 1.0001 1.0001 0 0 0 13.78125 40.625 L 38.78125 10.625 A 1.0001 1.0001 0 0 0 37.90625 8.96875 z M 48.90625 8.96875 A 1.0001 1.0001 0 0 0 48.78125 9 A 1.0001 1.0001 0 0 0 48.21875 9.375 L 23.9375 38.5 L 21.375 35.96875 A 1.0001 1.0001 0 1 0 19.96875 37.375 L 23.28125 40.71875 A 1.0001 1.0001 0 0 0 24.78125 40.625 L 49.78125 10.625 A 1.0001 1.0001 0 0 0 48.90625 8.96875 z" overflow="visible" font-family="Sans"/>
</svg>