<svg xmlns="http://www.w3.org/2000/svg" viewBox="0 0 54 54" fill="none">
<path d="M54 0H0V54H10.5575V49.0066H4.9934V4.99339H49.0066V49.0066H43.5139V54H54V0Z" fill="#009966"/>
<path d="M33.7878 45.9145C35.8872 45.6308 37.4966 43.6449 37.2867 41.4462L35.3973 22.5092C35.2574 21.1616 34.1377 20.1687 32.8781 20.1687L20.9819 20.2396C19.6524 20.2396 18.6027 21.2325 18.4627 22.5801L16.6433 41.5172C16.4334 43.7158 18.0429 45.7017 20.1422 45.9854L14.9639 54H18.0429L18.4627 53.3617H35.5373L35.9571 54H39.0361L33.7878 45.9145ZM34.7675 41.5172C34.7675 42.0846 34.3476 42.5101 33.7878 42.5101H31.6885C31.1287 42.5101 30.7088 42.0846 30.7088 41.5172V41.4462C30.7088 40.8788 31.1287 40.4533 31.6885 40.4533H33.7878C34.3476 40.4533 34.7675 40.8788 34.7675 41.4462V41.5172ZM31.6185 47.4749L32.4583 48.6806H21.5417L22.3815 47.4749H31.6185ZM22.8713 46.6947L23.3612 45.9854H30.6388L31.1287 46.6947H22.8713ZM32.9481 49.5317L33.6479 50.5247H20.3521L21.0519 49.5317H32.9481ZM23.921 22.1546C23.921 21.729 24.2709 21.3744 24.6907 21.3744H29.1693C29.5892 21.3744 29.9391 21.729 29.9391 22.1546V23.3603C29.9391 23.7859 29.5892 24.1405 29.1693 24.1405H24.6907C24.2709 24.1405 23.921 23.7859 23.921 23.3603V22.1546ZM19.1625 30.4528L19.4424 26.9775C19.5124 25.9136 20.4221 25.0625 21.4718 25.0625H32.5282C33.5779 25.0625 34.4876 25.9136 34.5576 26.9775L34.8375 30.4528C34.9075 31.6586 33.9978 32.6515 32.8081 32.6515H21.1919C20.0022 32.5806 19.0925 31.5876 19.1625 30.4528ZM19.1625 41.5172V41.4462C19.1625 40.8788 19.5824 40.4533 20.1422 40.4533H22.2415C22.8013 40.4533 23.2212 40.8788 23.2212 41.4462V41.5172C23.2212 42.0846 22.8013 42.5101 22.2415 42.5101H20.1422C19.5824 42.5101 19.1625 42.0846 19.1625 41.5172ZM18.9526 52.5815L19.7923 51.3758H34.1377L34.9774 52.5815H18.9526Z" fill="#009966"/>
</svg>