<svg xmlns="http://www.w3.org/2000/svg" viewBox="0 0 54 54" fill="none">
<path d="M54 0H0V54H10.5575V49.0066H4.9934V4.99339H49.0066V49.0066H43.5139V54H54V0Z" fill="#2BBFAD"/>
<path d="M26.9338 53.9828C24.2208 53.9828 21.5774 53.9828 18.8645 53.9828C18.1688 53.9828 17.5428 53.9828 16.8472 53.9138C14.0646 53.5001 12.8821 51.5005 14.2038 49.0183C16.6385 44.4675 18.934 39.9167 21.647 35.5038C23.4556 32.6079 22.9687 29.574 23.0383 26.6091C23.0383 26.0575 22.6904 25.7817 22.2035 25.6438C21.2992 25.368 21.1601 24.6095 21.0209 23.8511C20.8122 22.6789 21.2296 22.1273 22.4818 22.1273C25.4034 22.1273 28.3946 22.1273 31.3163 22.1273C32.0119 22.1273 32.9162 21.9894 33.0553 22.9547C33.1945 23.92 33.1945 24.9543 32.2206 25.368C31.1076 25.9196 31.1076 26.747 30.9684 27.7123C30.6902 31.1599 31.4554 34.1938 33.3336 37.1587C35.6292 40.7441 37.5074 44.6054 39.5247 48.3288C41.3333 51.6384 40.0812 53.7759 36.1857 53.9138C33.1945 54.0517 30.0641 53.9828 26.9338 53.9828ZM19.9079 42.0542C20.6036 42.2611 21.0209 41.9852 21.5079 41.9163C24.36 41.3647 26.9338 41.7094 28.9511 44.0538C29.5772 44.8122 30.4119 45.3639 31.1771 45.9155C32.2901 46.7429 33.4727 47.2255 34.9335 47.0876C36.4639 46.9497 36.6726 46.6739 35.977 45.3639C34.6553 42.9506 33.5423 40.4683 32.0119 38.2619C29.6467 34.8833 28.9511 31.2289 29.2989 27.2297C29.4381 25.8507 29.4381 24.6095 30.9684 23.92C28.325 23.92 25.6121 23.92 22.9687 23.92C24.5686 24.4716 24.6382 25.6438 24.6382 26.9539C24.6382 28.264 24.5686 29.643 24.6382 30.9531C24.7078 32.47 24.36 33.849 23.5948 35.1591C22.4122 37.3655 21.2296 39.7099 19.9079 42.0542Z" fill="#2BBFAD"/>
</svg>