<svg xmlns="http://www.w3.org/2000/svg" viewBox="0 0 55 55" fill="none">
<path d="M55 0H0V55H10.753V49.9141H5.08587V5.08587H49.9141V49.9141H44.3197V55H55V0Z" fill="#0B3051"/>
<path d="M27.5363 24.4122L12.2061 30.0793V32.9855H42.8666V30.0793L27.5363 24.4122ZM27.4637 31.6777C26.0106 31.6777 24.7754 30.5152 24.7754 28.9894C24.7754 27.4637 25.9379 26.3012 27.4637 26.3012C28.9168 26.3012 30.1519 27.4637 30.1519 28.9894C30.1519 30.5152 28.9894 31.6777 27.4637 31.6777Z" fill="#0B3051"/>
<path d="M41.5588 34.2933H13.5139V35.6737H41.5588V34.2933Z" fill="#0B3051"/>
<path d="M20.1982 37.6354V36.9815H14.8943V37.6354C14.8943 37.9987 15.1849 38.2893 15.5482 38.2893H19.5443C19.9075 38.362 20.1982 38.0713 20.1982 37.6354Z" fill="#0B3051"/>
<path d="M14.8943 47.0079H20.1982V46.354C20.1982 45.9908 19.9075 45.7001 19.5443 45.7001H15.5482C15.1849 45.7001 14.8943 45.9908 14.8943 46.354V47.0079Z" fill="#0B3051"/>
<path d="M40.1783 37.6354V36.9815H34.8745V37.6354C34.8745 37.9987 35.1651 38.2893 35.5284 38.2893H39.5244C39.8877 38.362 40.1783 38.0713 40.1783 37.6354Z" fill="#0B3051"/>
<path d="M18.8904 39.6697H16.2021V44.3923H18.8904V39.6697Z" fill="#0B3051"/>
<path d="M13.5139 49.6962H31.0964C31.0964 49.6962 30.8785 48.9696 30.8785 48.3157H13.5139V49.6962Z" fill="#0B3051"/>
<path d="M12.2061 51.004V52.9657H32.7675C32.7675 52.9657 31.9683 51.8758 31.605 51.004H12.2061Z" fill="#0B3051"/>
<path d="M32.1863 43.6658V47.9524C32.1863 47.9524 32.3316 52.8203 37.4901 55C37.4901 55 41.3408 53.6922 42.576 49.5509C42.7213 48.9696 42.7939 48.3157 42.7939 47.7345V43.7384C42.7939 43.7384 39.7424 43.6658 37.4174 41.9221C37.4174 41.8494 34.7292 43.6658 32.1863 43.6658ZM40.6143 46.572L37.7807 50.2048C37.5628 50.568 37.3448 50.6407 37.3448 50.6407C37.1995 50.7133 36.9815 50.7133 36.8362 50.6407C36.7635 50.568 36.6909 50.568 36.6182 50.4954L34.5112 48.0251L35.3831 47.2985L37.0542 49.3329L39.6698 45.9181L40.6143 46.572Z" fill="#0B3051"/>
<path d="M36.6182 40.8322C36.6182 40.8322 36.8362 40.6869 36.9089 40.6143C37.2721 40.3237 37.4174 40.3236 37.4174 40.3236C37.4901 40.3236 37.4901 40.3236 37.5628 40.3236C37.6354 40.3236 37.7081 40.3236 37.7081 40.3963C37.926 40.469 37.9987 40.6143 38.144 40.7596C38.4346 41.0502 38.7979 41.1955 38.7979 41.1955V39.7424H36.1823V41.1229L36.6182 40.8322Z" fill="#0B3051"/>
</svg>