<svg xmlns="http://www.w3.org/2000/svg" viewBox="0 0 54 54" fill="none">
<path d="M54 0H0V53.9999H10.5575V49.0065H4.9934V4.99339H49.0066V49.0065H43.5139V53.9999H54V0Z" fill="#743794"/>
<path d="M29.6551 24.7355C29.6551 23.3529 28.5838 22.2776 27.2064 22.2776C25.829 22.2776 24.7577 23.3529 24.7577 24.7355C24.7577 25.734 25.2933 26.579 26.1351 26.963L15.6516 54H17.5647L18.3299 52.003L27.2064 47.2408L36.1594 52.2334L36.7716 54H38.6846L28.2777 26.963C29.1194 26.579 29.6551 25.734 29.6551 24.7355ZM27.2064 23.9674C27.6655 23.9674 27.9716 24.2747 27.9716 24.7355C27.9716 25.1964 27.6655 25.5036 27.2064 25.5036C26.7472 25.5036 26.4412 25.1964 26.4412 24.7355C26.4412 24.3515 26.7472 23.9674 27.2064 23.9674ZM23.7629 37.7932L25.4464 38.7917L22.8446 40.2511L23.7629 37.7932ZM19.1716 49.6987L21.3142 43.7843L25.3699 46.1654L19.1716 49.6987ZM35.1646 49.6987L28.9664 46.1654L33.022 43.7843L35.1646 49.6987ZM27.2064 45.2437L22.309 42.4785L27.2064 39.7134L32.1037 42.4785L27.2064 45.2437ZM31.5681 40.2511L28.9664 38.7917L30.6498 37.7932L31.5681 40.2511ZM30.0377 36.1034L27.2064 37.7932L24.3751 36.1034L27.2064 28.8064L30.0377 36.1034Z" fill="#743794"/>
<path d="M21.6206 29.2674C22.0032 29.5746 22.6154 29.4978 22.9214 29.037C23.0745 28.8833 23.0745 28.6529 23.0745 28.4993C23.0745 28.192 22.9214 27.9616 22.6919 27.7312C21.6971 27.0399 21.1614 25.8878 21.1614 24.7356C21.1614 23.5835 21.7736 22.4313 22.6919 21.74C23.0745 21.4328 23.2275 20.8951 22.9214 20.4343C22.6154 20.0502 22.0797 19.8966 21.6206 20.2038C20.1667 21.2024 19.3249 22.8922 19.3249 24.7356C19.3249 26.5022 20.1667 28.192 21.6206 29.2674Z" fill="#743794"/>
<path d="M18.866 31.4178C19.2486 31.725 19.7842 31.725 20.1668 31.3409C20.3199 31.1873 20.3964 30.9569 20.3964 30.7265C20.3964 30.496 20.3199 30.1888 20.0903 30.0352C18.5599 28.6526 17.7181 26.7324 17.7181 24.7353C17.7181 22.7383 18.5599 20.818 20.0903 19.4354C20.4729 19.1282 20.4729 18.5137 20.1668 18.1297C19.8607 17.7456 19.2486 17.7456 18.866 18.0529C16.9529 19.7427 15.8816 22.2006 15.8816 24.7353C15.8816 27.27 16.9529 29.7279 18.866 31.4178Z" fill="#743794"/>
<path d="M17.4119 33.6455C17.5649 33.4919 17.6414 33.2615 17.6414 33.0311C17.6414 32.8006 17.5649 32.5702 17.3353 32.3398C15.2693 30.3427 14.198 27.6544 14.198 24.8124C14.198 21.9705 15.3458 19.2821 17.3353 17.2851C17.7179 16.901 17.7179 16.3634 17.3353 15.9793C16.9527 15.5953 16.4171 15.5953 16.0345 15.9793C13.6623 18.3604 12.3614 21.5096 12.3614 24.8124C12.3614 28.1921 13.6623 31.3413 16.0345 33.6455C16.4936 33.9528 17.1058 33.9528 17.4119 33.6455Z" fill="#743794"/>
<path d="M31.7212 27.731C31.4917 27.8847 31.3386 28.1919 31.3386 28.4991C31.3386 28.6528 31.4151 28.8832 31.4917 29.0368C31.7978 29.4209 32.3334 29.5745 32.7925 29.2672C34.2464 28.2687 35.0882 26.5789 35.0882 24.7355C35.0882 22.9688 34.2464 21.279 32.7925 20.2037C32.4099 19.8965 31.7978 19.9733 31.4917 20.4341C31.1856 20.8182 31.2621 21.4326 31.7212 21.7399C32.716 22.4312 33.2517 23.5833 33.2517 24.7355C33.2517 25.9644 32.716 27.0398 31.7212 27.731Z" fill="#743794"/>
<path d="M34.3996 19.4354C35.93 20.818 36.7717 22.7383 36.7717 24.7353C36.7717 26.7324 35.93 28.6526 34.3996 30.0352C34.17 30.1888 34.0935 30.496 34.0935 30.7265C34.0935 30.9569 34.17 31.1873 34.323 31.3409C34.6291 31.725 35.2413 31.725 35.6239 31.4178C37.5369 29.7279 38.6082 27.27 38.6082 24.7353C38.6082 22.2006 37.5369 19.7427 35.6239 18.0529C35.2413 17.7456 34.7056 17.7456 34.323 18.1297C33.9404 18.5137 34.017 19.1282 34.3996 19.4354Z" fill="#743794"/>
<path d="M40.1388 24.7356C40.1388 27.5775 38.991 30.2659 37.0014 32.2629C36.8484 32.4165 36.6954 32.647 36.6954 32.9542C36.6954 33.1846 36.7719 33.4151 36.9249 33.5687C37.3075 33.9527 37.8432 33.9527 38.2258 33.5687C40.5979 31.1876 41.8988 28.0384 41.8988 24.7356C41.8988 21.356 40.5979 18.2068 38.2258 15.9025C37.8432 15.5184 37.3075 15.5184 36.9249 15.9025C36.5423 16.2865 36.5423 16.8242 36.9249 17.2082C39.0675 19.2053 40.1388 21.8936 40.1388 24.7356Z" fill="#743794"/>
</svg>