<svg xmlns="http://www.w3.org/2000/svg" viewBox="0 0 54 54" fill="none">
<path d="M54 0H0V54H10.5575V49.0066H4.9934V4.9934H49.0066V49.0066H43.5139V54H54V0Z" fill="#1D5A9F"/>
<path d="M54 0H0V54H10.5575V49.0066H4.9934V4.9934H49.0066V49.0066H43.5139V54H54V0Z" fill="#1D5A9F"/>
<path d="M12.3614 31.0988H24.853V43.5904H12.3614V31.0988Z" fill="#009966"/>
<path d="M43.5904 37.3446C43.5904 40.794 40.794 43.5904 37.3446 43.5904C33.8951 43.5904 31.0988 40.794 31.0988 37.3446C31.0988 33.8951 33.8951 31.0988 37.3446 31.0988C40.794 31.0988 43.5904 33.8951 43.5904 37.3446Z" fill="#D69B19"/>
<path d="M26.9349 12.3614L34.1469 24.853H19.7229L26.9349 12.3614Z" fill="#CC3233"/>
</svg>