<svg xmlns="http://www.w3.org/2000/svg" viewBox="0 0 55 55" fill="none">
<path d="M55 0H0V54.9273H10.753V49.8482H5.08587V5.07914H49.9141V49.8482H44.3197V54.9273H55V0Z" fill="#CC3233"/>
<path d="M31.0963 50.5739H28.6987L28.0448 35.3364H25.7925L24.9206 50.5739H22.5956C21.7964 50.5739 21.0699 51.0818 20.7793 51.8799L19.5441 55H34.0752L32.9127 51.9525C32.6221 51.0818 31.8955 50.5739 31.0963 50.5739Z" fill="#CC3233"/>
<path d="M26.8821 34.1029C28.447 34.1029 29.7156 32.836 29.7156 31.2731C29.7156 29.7103 28.447 28.4433 26.8821 28.4433C25.3172 28.4433 24.0485 29.7103 24.0485 31.2731C24.0485 32.836 25.3172 34.1029 26.8821 34.1029Z" fill="#CC3233"/>
<path d="M25.4291 27.2098C26.5916 26.7019 28.0447 27.1373 28.0447 27.1373L29.2799 25.033C29.2072 20.3167 27.7541 15.9631 27.5361 15.165C27.5361 15.0924 27.4635 15.0199 27.4635 14.9473C27.2455 14.1492 26.8822 13.9315 26.519 13.9315C26.1557 13.9315 25.8651 14.1492 25.7198 14.4394C25.6471 14.5845 25.6471 14.7296 25.5744 14.8748C25.2838 19.5185 24.9205 23.0014 25.1385 25.2507C25.2838 26.5568 25.5018 27.2098 25.4291 27.2098Z" fill="#CC3233"/>
<path d="M24.0487 34.3206C23.0315 33.5225 22.6682 32.0713 22.6682 32.0713H20.1979C16.2019 34.5383 13.1504 38.0211 12.5691 38.6742C12.4965 38.7467 12.4965 38.8193 12.4238 38.8193C11.8426 39.3998 11.8426 39.8351 11.9879 40.1254C12.1332 40.4156 12.4965 40.5607 12.7871 40.5607C12.9324 40.5607 13.0777 40.4882 13.223 40.4156C17.3644 38.3114 20.5612 36.8602 22.3776 35.5541C23.6127 34.756 23.976 34.3206 24.0487 34.3206Z" fill="#CC3233"/>
<path d="M41.6314 38.4564C37.7807 35.8442 34.9471 33.74 32.9854 32.7242C31.7503 32.1437 31.0964 31.9986 31.0964 31.926C30.8784 33.1595 29.7886 34.1754 29.7886 34.1754L30.9511 36.2796C35.0198 38.674 39.597 39.6899 40.3962 39.835C40.4689 39.835 40.5416 39.835 40.6142 39.9075C41.4134 40.1252 41.7767 39.9075 41.9947 39.6173C42.2126 39.3271 42.14 38.9643 41.9947 38.674C41.8494 38.6015 41.704 38.5289 41.6314 38.4564Z" fill="#CC3233"/>
<path d="M43.0843 27.5725C42.2124 24.8153 40.9773 22.4934 39.4515 20.5343C38.2164 19.0106 36.7633 17.7045 35.0922 16.7612C32.2586 15.0924 29.9337 14.9472 29.861 14.9472C29.4978 14.9472 29.2071 15.1649 29.2071 15.5277C29.2071 15.8905 29.4251 16.1807 29.7884 16.1807C29.7884 16.1807 31.968 16.3259 34.511 17.8496C37.9258 19.8813 40.4687 23.2916 41.9218 27.9353C41.9945 28.2256 42.2851 28.3707 42.503 28.3707C42.5757 28.3707 42.6483 28.3707 42.721 28.3707C42.939 28.2981 43.1569 27.9353 43.0843 27.5725Z" fill="#CC3233"/>
<path d="M33.2758 20.5345C34.4382 21.2601 36.1093 22.5662 37.5624 25.1783C37.7077 25.396 37.853 25.4686 38.071 25.4686C38.1437 25.4686 38.289 25.4686 38.3616 25.396C38.6523 25.2509 38.7976 24.8155 38.5796 24.5253C35.5281 19.0833 31.3867 18.4303 31.2414 18.3578C30.8781 18.2852 30.5875 18.5029 30.5149 18.8657C30.4422 19.2285 30.6602 19.5187 31.0235 19.5913C31.0961 19.6638 32.0406 19.8089 33.2758 20.5345Z" fill="#CC3233"/>
</svg>