<svg xmlns="http://www.w3.org/2000/svg" viewBox="0 0 20 20" fill="none">
<path d="M17.4099 11C17.1899 11 16.9599 10.93 16.7399 10.88C16.2948 10.7805 15.857 10.6501 15.4299 10.49C14.966 10.3212 14.4561 10.33 13.9982 10.5146C13.5404 10.6992 13.167 11.0466 12.9499 11.49L12.7299 11.95C11.7587 11.3992 10.8616 10.7271 10.0599 9.95C9.28278 9.14837 8.61072 8.25118 8.05993 7.28L8.51993 7.07C8.96329 6.85292 9.31071 6.47953 9.49532 6.02169C9.67993 5.56385 9.6887 5.05391 9.51993 4.59C9.36112 4.15903 9.23083 3.71808 9.12993 3.27C9.07993 3.05 9.03993 2.82 9.00993 2.6C8.88849 1.89562 8.51955 1.25774 7.96955 0.801239C7.41955 0.344737 6.72462 0.0996088 6.00993 0.11H2.99993C2.57717 0.109446 2.15908 0.198248 1.77305 0.370584C1.38701 0.54292 1.04176 0.794898 0.759928 1.11C0.472248 1.43365 0.258043 1.81575 0.132031 2.23004C0.00601913 2.64432 -0.028813 3.08098 0.0299278 3.51C0.573515 7.67214 2.47514 11.5387 5.43993 14.51C8.41127 17.4748 12.2778 19.3764 16.4399 19.92C16.5697 19.9299 16.7001 19.9299 16.8299 19.92C17.5673 19.9211 18.2793 19.6505 18.8299 19.16C19.145 18.8782 19.397 18.5329 19.5693 18.1469C19.7417 17.7609 19.8305 17.3428 19.8299 16.92V13.92C19.8245 13.229 19.5808 12.5611 19.1399 12.0291C18.6989 11.4971 18.0879 11.1336 17.4099 11ZM17.8999 17C17.8996 17.1395 17.8701 17.2775 17.8132 17.4049C17.7564 17.5324 17.6735 17.6465 17.5699 17.74C17.4603 17.8399 17.3299 17.9141 17.1881 17.9573C17.0463 18.0006 16.8966 18.0117 16.7499 17.99C13.0182 17.5026 9.55018 15.802 6.87993 13.15C4.2074 10.4775 2.49196 6.99737 1.99993 3.25C1.9782 3.10333 1.98936 2.95367 2.0326 2.81185C2.07584 2.67003 2.15007 2.5396 2.24993 2.43C2.34455 2.32515 2.46031 2.24154 2.58958 2.18466C2.71885 2.12778 2.8587 2.09892 2.99993 2.1H5.99993C6.23109 2.09435 6.45707 2.16898 6.63939 2.3112C6.82172 2.45341 6.94913 2.65442 6.99993 2.88C6.99993 3.15 7.08993 3.43 7.14993 3.7C7.2655 4.22386 7.41925 4.73857 7.60993 5.24L6.20993 5.9C5.96929 6.01046 5.78229 6.21185 5.68993 6.46C5.58991 6.70346 5.58991 6.97654 5.68993 7.22C7.12913 10.3028 9.60717 12.7808 12.6899 14.22C12.9334 14.32 13.2065 14.32 13.4499 14.22C13.6981 14.1276 13.8995 13.9406 14.0099 13.7L14.6399 12.3C15.1558 12.4881 15.6837 12.6418 16.2199 12.76C16.4799 12.82 16.7599 12.87 17.0299 12.91C17.2555 12.9608 17.4565 13.0882 17.5987 13.2705C17.7409 13.4529 17.8156 13.6788 17.8099 13.91L17.8999 17ZM11.9999 0C11.7699 0 11.5299 0 11.2999 0C11.0347 0.0225434 10.7893 0.14952 10.6177 0.352997C10.4461 0.556474 10.3624 0.819784 10.3849 1.085C10.4075 1.35022 10.5344 1.59562 10.7379 1.76721C10.9414 1.93881 11.2047 2.02254 11.4699 2H11.9999C13.5912 2 15.1174 2.63214 16.2426 3.75736C17.3678 4.88258 17.9999 6.4087 17.9999 8C17.9999 8.18 17.9999 8.35 17.9999 8.53C17.9778 8.79381 18.0611 9.05565 18.2317 9.2581C18.4023 9.46055 18.6462 9.5871 18.9099 9.61H18.9899C19.2403 9.61102 19.4819 9.5181 19.667 9.34961C19.8522 9.18113 19.9674 8.94932 19.9899 8.7C19.9899 8.47 19.9899 8.23 19.9899 8C19.9899 5.88 19.1484 3.84668 17.6503 2.34668C16.1522 0.846674 14.1199 0.00265 11.9999 0ZM13.9999 8C13.9999 8.26522 14.1053 8.51957 14.2928 8.70711C14.4804 8.89464 14.7347 9 14.9999 9C15.2651 9 15.5195 8.89464 15.707 8.70711C15.8946 8.51957 15.9999 8.26522 15.9999 8C15.9999 6.93913 15.5785 5.92172 14.8284 5.17157C14.0782 4.42143 13.0608 4 11.9999 4C11.7347 4 11.4804 4.10536 11.2928 4.29289C11.1053 4.48043 10.9999 4.73478 10.9999 5C10.9999 5.26522 11.1053 5.51957 11.2928 5.70711C11.4804 5.89464 11.7347 6 11.9999 6C12.5304 6 13.0391 6.21071 13.4141 6.58579C13.7892 6.96086 13.9999 7.46957 13.9999 8Z" fill="currentColor"/>
</svg>