<svg viewBox="0 0 14 14" fill="none" xmlns="http://www.w3.org/2000/svg">
<path d="M6.99902 0.833374C8.63411 0.835192 10.2022 1.48578 11.3584 2.64197C12.5143 3.79807 13.1641 5.36551 13.166 7.00037L13.1621 7.22791C13.12 8.36773 12.7623 9.4753 12.127 10.4261C11.4494 11.4402 10.4861 12.2309 9.35938 12.6976C8.23271 13.1642 6.99292 13.2861 5.79688 13.0482C4.60081 12.8103 3.50202 12.223 2.63965 11.3607C1.7773 10.4984 1.18915 9.39958 0.951172 8.20349C0.71323 7.00728 0.835994 5.76683 1.30273 4.64001C1.76946 3.51338 2.5593 2.54998 3.57324 1.87244C4.58716 1.19496 5.7796 0.833503 6.99902 0.833374ZM9.23242 1.61072C8.16652 1.16921 6.99288 1.05361 5.86133 1.27869C4.72988 1.5038 3.69074 2.05963 2.875 2.87537C2.05926 3.6911 1.50344 4.73025 1.27832 5.86169C1.05324 6.99325 1.16884 8.16689 1.61035 9.23279C2.05185 10.2985 2.7997 11.2091 3.75879 11.85C4.65826 12.451 5.70595 12.7896 6.78418 12.8295L7 12.8334C8.5464 12.8316 10.0296 12.2169 11.123 11.1234C12.2165 10.0299 12.8312 8.54677 12.833 7.00037L12.8291 6.78357C12.7891 5.70568 12.4504 4.65835 11.8496 3.75916C11.2087 2.80006 10.2981 2.05222 9.23242 1.61072ZM7 3.50037C7.04408 3.50045 7.08601 3.51802 7.11719 3.54919C7.14837 3.58037 7.16593 3.6223 7.16602 3.66638V6.90369L7.41602 7.04822L8.81543 7.85583C8.83437 7.86677 8.85093 7.88146 8.86426 7.8988C8.87757 7.91616 8.88788 7.93627 8.89355 7.9574C8.89912 7.97838 8.90028 8.00032 8.89746 8.02185C8.89462 8.04344 8.88779 8.0645 8.87695 8.08337C8.86609 8.1022 8.85119 8.11892 8.83398 8.1322C8.81664 8.14551 8.79651 8.15583 8.77539 8.1615C8.75423 8.16717 8.73168 8.16827 8.70996 8.16541L8.64844 8.1449L6.91602 7.1449C6.8907 7.13028 6.87008 7.1087 6.85547 7.08337C6.84089 7.0581 6.83303 7.02954 6.83301 7.00037V3.66638C6.83309 3.62237 6.85076 3.58036 6.88184 3.54919C6.91309 3.51794 6.9558 3.50037 7 3.50037Z" fill="currentColor" stroke="currentColor"/>
</svg>
