<svg xmlns="http://www.w3.org/2000/svg" viewBox="0 0 21 20" fill="none">
<path d="M16.4999 10.9C16.4999 10.7 16.2999 10.5 16.0999 10.5C15.9999 10.5 15.8999 10.5 15.7999 10.6C14.4999 11.7 12.7999 12.3 10.9999 12.3C9.2999 12.3 7.5999 11.7 6.1999 10.6C6.0999 10.5 5.9999 10.5 5.8999 10.5C5.6999 10.5 5.4999 10.7 5.4999 10.9C5.4999 11.1 5.5999 11.2 5.6999 11.4C6.9999 13 8.9999 13.9 10.9999 13.8C12.9999 13.9 14.8999 13 16.1999 11.4C16.3999 11.2 16.3999 11.1 16.4999 10.9ZM19.1999 17.8C18.3999 17.4 17.7999 16.6 17.4999 15.8C17.3999 15.6 17.4999 15.5 17.5999 15.4C19.6999 13.9 20.8999 11.5 20.8999 9.00002C20.8999 4.20002 16.3999 0.400024 10.8999 0.400024C5.3999 0.400024 0.899902 4.30002 0.899902 9.00002C0.899902 13.8 5.3999 17.6 10.8999 17.6C11.5999 17.6 12.2999 17.5 12.9999 17.4C13.0999 17.4 13.2999 17.4 13.3999 17.5C14.9999 18.4 16.7999 19 18.5999 19C18.9999 19.1 19.2999 18.8 19.3999 18.4V18.3C19.4999 18.1 19.3999 17.9 19.1999 17.8ZM16.4999 17V17.1C16.4999 17.2 16.3999 17.2 16.3999 17.2C15.2999 16.9 14.3999 16.4 13.4999 15.7C13.3999 15.6 13.1999 15.6 12.9999 15.6C12.2999 15.8 11.5999 15.8 10.8999 15.8C6.2999 15.8 2.5999 12.7 2.5999 8.90002C2.5999 5.10002 6.2999 2.00002 10.8999 2.00002C15.4999 2.00002 19.1999 5.10002 19.1999 8.90002C19.0999 11.2 17.7999 13.3 15.7999 14.4C15.5999 14.5 15.4999 14.7 15.4999 14.8C15.7999 15.7 16.0999 16.4 16.4999 17Z" fill="currentColor"/>
</svg>