<svg xmlns="http://www.w3.org/2000/svg" viewBox="0 0 28 28" fill="none">
<path d="M14 26.5417C7.08171 26.5417 1.45837 20.9183 1.45837 14C1.45837 7.08166 7.08171 1.45833 14 1.45833C20.9184 1.45833 26.5417 7.08166 26.5417 14C26.5417 20.9183 20.9184 26.5417 14 26.5417ZM14 3.20833C8.05004 3.20833 3.20837 8.04999 3.20837 14C3.20837 19.95 8.05004 24.7917 14 24.7917C19.95 24.7917 24.7917 19.95 24.7917 14C24.7917 8.04999 19.95 3.20833 14 3.20833Z" fill="currentColor"/>
<path d="M15.47 18.9933C15.2484 18.9933 15.0267 18.9117 14.8517 18.7367L10.7334 14.6183C10.395 14.28 10.395 13.72 10.7334 13.3817L14.8517 9.26333C15.19 8.925 15.75 8.925 16.0884 9.26333C16.4267 9.60167 16.4267 10.1617 16.0884 10.5L12.5884 14L16.0884 17.5C16.4267 17.8383 16.4267 18.3983 16.0884 18.7367C15.925 18.9117 15.7034 18.9933 15.47 18.9933Z" fill="currentColor"/>
</svg>