<svg xmlns="http://www.w3.org/2000/svg" viewBox="0 0 28 28" fill="none">
<path d="M14 26.5417C7.08171 26.5417 1.45837 20.9183 1.45837 14C1.45837 7.08166 7.08171 1.45833 14 1.45833C20.9184 1.45833 26.5417 7.08166 26.5417 14C26.5417 20.9183 20.9184 26.5417 14 26.5417ZM14 3.20833C8.05004 3.20833 3.20837 8.04999 3.20837 14C3.20837 19.95 8.05004 24.7917 14 24.7917C19.95 24.7917 24.7917 19.95 24.7917 14C24.7917 8.04999 19.95 3.20833 14 3.20833Z" fill="currentColor"/>
<path d="M12.53 18.9933C12.3084 18.9933 12.0867 18.9117 11.9117 18.7367C11.5734 18.3983 11.5734 17.8383 11.9117 17.5L15.4117 14L11.9117 10.5C11.5734 10.1617 11.5734 9.60167 11.9117 9.26333C12.25 8.925 12.81 8.925 13.1484 9.26333L17.2667 13.3817C17.605 13.72 17.605 14.28 17.2667 14.6183L13.1484 18.7367C12.9734 18.9117 12.7517 18.9933 12.53 18.9933Z" fill="currentColor"/>
</svg>