<svg xmlns="http://www.w3.org/2000/svg" viewBox="0 0 21 20" fill="none">
<path d="M20 7.6699C19.9368 7.48699 19.822 7.32633 19.6693 7.2074C19.5167 7.08848 19.3328 7.0164 19.14 6.9999L13.45 6.1699L10.9 0.999901C10.8181 0.83083 10.6902 0.688243 10.5311 0.588475C10.3719 0.488706 10.1878 0.435791 9.99998 0.435791C9.81212 0.435791 9.62806 0.488706 9.46889 0.588475C9.30971 0.688243 9.18186 0.83083 9.09998 0.999901L6.54998 6.1599L0.859977 6.9999C0.667177 7.0164 0.483333 7.08848 0.330677 7.2074C0.17802 7.32633 0.0632366 7.48699 0 7.6699C-0.0486349 7.85278 -0.0444034 8.0457 0.0122569 8.22625C0.0689172 8.4068 0.175645 8.56758 0.319977 8.6899L4.44998 12.6899L3.44998 18.3699C3.41428 18.5574 3.43297 18.7512 3.50385 18.9284C3.57473 19.1055 3.69483 19.2488 3.84998 19.3599C4.0224 19.4941 4.229 19.5607 4.43998 19.5599C4.60115 19.5604 4.75968 19.5191 4.89998 19.4399L9.99998 16.7599L15.1 19.4399C15.2642 19.517 15.4495 19.5566 15.635 19.5442C15.8204 19.5318 15.9988 19.468 16.15 19.3599C16.3051 19.2488 16.4252 19.0955 16.4961 18.9184C16.567 18.7412 16.5857 18.5474 16.55 18.3599L15.55 12.6799L19.68 8.6799C19.8086 8.55163 19.8997 8.39077 19.9438 8.21459C19.9878 8.03842 19.9831 7.85358 19.93 7.6799C19.8721 7.50218 19.7654 7.34425 19.6223 7.22406C19.4791 7.10386 19.3051 7.02621 19.12 6.9999L13.43 6.1699L10.88 0.999901C10.7981 0.83083 10.6703 0.688243 10.5111 0.588475C10.3519 0.488706 10.1679 0.435791 9.99998 0.435791C9.83206 0.435791 9.64806 0.488706 9.48889 0.588475C9.32971 0.688243 9.20186 0.83083 9.11998 0.999901L6.56998 6.1599L0.879977 6.9999C0.694902 7.02621 0.520904 7.10386 0.37773 7.22406C0.234556 7.34425 0.127939 7.50218 0.0699774 7.6799C0.0120159 7.85762 0.00446385 8.04799 0.0481678 8.22951C0.0918718 8.41103 0.185097 8.57613 0.316977 8.7049L4.41998 12.6799L3.41998 18.3599C3.38428 18.5474 3.40297 18.7412 3.47385 18.9184C3.54473 19.0955 3.66483 19.2488 3.81998 19.3599C3.97119 19.468 4.14955 19.5318 4.33503 19.5442C4.5205 19.5566 4.70575 19.517 4.86998 19.4299L9.99998 16.7599L15.13 19.4299C15.2942 19.517 15.4795 19.5566 15.665 19.5442C15.8505 19.5318 16.0288 19.468 16.18 19.3599C16.3351 19.2488 16.4552 19.0955 16.5261 18.9184C16.597 18.7412 16.6157 18.5474 16.58 18.3599L15.58 12.6799L19.683 8.7049C19.8149 8.57613 19.9081 8.41103 19.9518 8.22951C19.9955 8.04799 19.988 7.85762 19.93 7.6799V7.6699Z" fill="currentColor"/>
</svg>