<svg width="36" height="36" viewBox="0 0 36 36" fill="none" xmlns="http://www.w3.org/2000/svg">
<g filter="url(#filter0_i_262_2342)">
<rect width="36" height="36" rx="18" fill="white"/>
<path d="M20.655 17.4675L16.41 13.23C16.3403 13.1597 16.2574 13.1039 16.166 13.0659C16.0746 13.0278 15.9766 13.0082 15.8775 13.0082C15.7785 13.0082 15.6805 13.0278 15.5891 13.0659C15.4977 13.1039 15.4148 13.1597 15.345 13.23C15.2054 13.3705 15.127 13.5606 15.127 13.7588C15.127 13.9569 15.2054 14.147 15.345 14.2875L19.0575 18.0375L15.345 21.75C15.2054 21.8905 15.127 22.0806 15.127 22.2788C15.127 22.4769 15.2054 22.667 15.345 22.8075C15.4145 22.8784 15.4973 22.9348 15.5887 22.9734C15.6802 23.012 15.7783 23.0321 15.8775 23.0325C15.9768 23.0321 16.0749 23.012 16.1663 22.9734C16.2578 22.9348 16.3406 22.8784 16.41 22.8075L20.655 18.57C20.7312 18.4998 20.7919 18.4146 20.8335 18.3197C20.875 18.2248 20.8965 18.1224 20.8965 18.0188C20.8965 17.9152 20.875 17.8127 20.8335 17.7179C20.7919 17.623 20.7312 17.5378 20.655 17.4675Z" fill="#06174A"/>
</g>
<defs>
<filter id="filter0_i_262_2342" x="0" y="0" width="36" height="38" filterUnits="userSpaceOnUse" color-interpolation-filters="sRGB">
<feFlood flood-opacity="0" result="BackgroundImageFix"/>
<feBlend mode="normal" in="SourceGraphic" in2="BackgroundImageFix" result="shape"/>
<feColorMatrix in="SourceAlpha" type="matrix" values="0 0 0 0 0 0 0 0 0 0 0 0 0 0 0 0 0 0 127 0" result="hardAlpha"/>
<feOffset dy="2"/>
<feGaussianBlur stdDeviation="5"/>
<feComposite in2="hardAlpha" operator="arithmetic" k2="-1" k3="1"/>
<feColorMatrix type="matrix" values="0 0 0 0 0.87 0 0 0 0 0.87 0 0 0 0 1 0 0 0 1 0"/>
<feBlend mode="normal" in2="shape" result="effect1_innerShadow_262_2342"/>
</filter>
</defs>
</svg>
