<svg xmlns="http://www.w3.org/2000/svg" viewBox="0 0 8 12" fill="none">
<path d="M7.33243 3.50001C7.33241 2.72953 7.07816 1.98058 6.60911 1.36933C6.14006 0.758075 5.48243 0.318669 4.7382 0.119259C3.99397 -0.0801515 3.20474 -0.0284218 2.49291 0.266425C1.78108 0.561272 1.18643 1.08276 0.801177 1.75001C0.668731 1.97973 0.632933 2.25265 0.701653 2.50876C0.770373 2.76487 0.937987 2.98321 1.16764 3.11577C1.3973 3.24834 1.6702 3.28428 1.92635 3.21569C2.18249 3.1471 2.40092 2.9796 2.5336 2.75001C2.66544 2.52219 2.85481 2.333 3.08275 2.20138C3.31069 2.06975 3.56921 2.00031 3.83243 2.00001C4.23025 2.00001 4.61178 2.15804 4.89309 2.43935C5.17439 2.72065 5.33243 3.10218 5.33243 3.50001C5.33243 3.89783 5.17439 4.27936 4.89309 4.56067C4.61178 4.84197 4.23025 5.00001 3.83243 5.00001H3.82999C3.76575 5.00644 3.70233 5.01941 3.64072 5.03871C3.57334 5.0457 3.50682 5.05932 3.44211 5.07936C3.38704 5.10927 3.33497 5.14438 3.28659 5.18421C3.22916 5.21545 3.1749 5.25221 3.12459 5.29396C3.07962 5.34762 3.04039 5.40584 3.00753 5.46766C2.97109 5.51275 2.93874 5.561 2.91085 5.61183C2.88912 5.68075 2.87475 5.75179 2.868 5.82374C2.85058 5.88124 2.83867 5.94026 2.83243 6.00001V7.00001L2.83475 7.01136L2.83585 7.50245C2.83654 7.76723 2.94219 8.02093 3.12965 8.20793C3.31711 8.39493 3.57107 8.49997 3.83585 8.50001H3.83829C4.1035 8.49934 4.35759 8.39336 4.54466 8.20537C4.73174 8.01738 4.83648 7.76278 4.83585 7.49757L4.83432 6.83619C5.55388 6.62228 6.1854 6.1823 6.63534 5.58141C7.08529 4.98052 7.32972 4.25068 7.33243 3.50001ZM3.12979 10.29C2.98938 10.4293 2.89342 10.607 2.85402 10.8008C2.81463 10.9946 2.83357 11.1957 2.90846 11.3787C2.98335 11.5617 3.11083 11.7185 3.27476 11.829C3.4387 11.9396 3.63175 11.9991 3.8295 12C4.0947 11.9978 4.34898 11.894 4.53995 11.71C4.72556 11.5203 4.8295 11.2655 4.8295 11C4.8295 10.7346 4.72556 10.4798 4.53995 10.2901C4.34851 10.1117 4.09656 10.0125 3.83488 10.0125C3.5732 10.0124 3.32124 10.1116 3.12979 10.29Z" fill="currentColor"/>
</svg>