<svg xmlns="http://www.w3.org/2000/svg" viewBox="0 0 18 21" fill="none">
<path d="M15.0001 2.47991C13.4088 0.888611 11.2505 -0.00537111 9.00005 -0.00537109C6.74961 -0.00537108 4.59135 0.888611 3.00005 2.47991C1.40875 4.07121 0.514771 6.22947 0.514771 8.47991C0.51477 10.7303 1.40875 12.8886 3.00005 14.4799L8.27005 19.7599C8.36302 19.8536 8.47362 19.928 8.59548 19.9788C8.71733 20.0296 8.84804 20.0557 8.98005 20.0557C9.11206 20.0557 9.24277 20.0296 9.36463 19.9788C9.48649 19.928 9.59709 19.8536 9.69005 19.7599L15.0001 14.4299C16.5847 12.8452 17.4749 10.696 17.4749 8.45491C17.4749 6.21386 16.5847 4.06459 15.0001 2.47991ZM13.5701 12.9999L9.00005 17.5899L4.43005 12.9999C3.5272 12.0962 2.91253 10.9452 2.66375 9.6922C2.41497 8.43925 2.54324 7.14066 3.03236 5.96059C3.52147 4.78052 4.34947 3.77196 5.41168 3.06239C6.4739 2.35281 7.72264 1.97409 9.00005 1.97409C10.2775 1.97409 11.5262 2.35281 12.5884 3.06239C13.6506 3.77196 14.4786 4.78052 14.9677 5.96059C15.4569 7.14066 15.5851 8.43925 15.3364 9.6922C15.0876 10.9452 14.4729 12.0962 13.5701 12.9999ZM6.00005 5.40991C5.19277 6.21968 4.73945 7.31648 4.73945 8.45991C4.73945 9.60334 5.19277 10.7001 6.00005 11.5099C6.59981 12.1107 7.36364 12.521 8.1957 12.6893C9.02776 12.8576 9.891 12.7765 10.6771 12.4561C11.4632 12.1356 12.1372 11.5902 12.6145 10.8882C13.0918 10.1861 13.3512 9.35878 13.3601 8.50991C13.3646 7.94311 13.2554 7.38117 13.039 6.8573C12.8225 6.33343 12.5033 5.85827 12.1001 5.45991C11.7037 5.05449 11.2311 4.73145 10.7095 4.50938C10.1878 4.2873 9.62739 4.17059 9.06045 4.16594C8.49351 4.16129 7.93125 4.26881 7.40602 4.4823C6.8808 4.69579 6.40297 5.01104 6.00005 5.40991ZM10.6901 10.0899C10.3111 10.4747 9.81026 10.7158 9.27318 10.7722C8.7361 10.8285 8.19612 10.6966 7.74556 10.3988C7.295 10.1011 6.96185 9.65615 6.80306 9.13999C6.64427 8.62384 6.6697 8.06855 6.87501 7.56907C7.08032 7.06958 7.45275 6.65693 7.92864 6.40165C8.40452 6.14637 8.9543 6.06432 9.48399 6.16953C10.0137 6.27474 10.4904 6.56067 10.8326 6.97844C11.1748 7.39621 11.3612 7.91988 11.3601 8.45991C11.3455 9.07718 11.0865 9.66344 10.6401 10.0899H10.6901Z" fill="#797EFF"/>
</svg>