<svg xmlns="http://www.w3.org/2000/svg" viewBox="0 0 22 12" fill="none">
<path d="M3.79004 4.4999H1.79004C1.52482 4.4999 1.27047 4.60525 1.08293 4.79279C0.895396 4.98033 0.790039 5.23468 0.790039 5.4999C0.790039 5.76511 0.895396 6.01947 1.08293 6.207C1.27047 6.39454 1.52482 6.4999 1.79004 6.4999H3.79004C4.05526 6.4999 4.30961 6.39454 4.49715 6.207C4.68468 6.01947 4.79004 5.76511 4.79004 5.4999C4.79004 5.23468 4.68468 4.98033 4.49715 4.79279C4.30961 4.60525 4.05526 4.4999 3.79004 4.4999ZM20.57 1.6599V1.5999C20.2835 1.24969 19.9215 0.968821 19.5111 0.778328C19.1007 0.587836 18.6525 0.49265 18.2 0.499897H10.27C9.53524 0.493297 8.82358 0.756612 8.27004 1.2399C7.75304 1.69543 7.41313 2.3186 7.31004 2.9999L6.43004 7.9999C6.35437 8.43169 6.37424 8.87482 6.48827 9.29811C6.6023 9.72139 6.80771 10.1145 7.09004 10.4499C7.3709 10.7841 7.72132 11.053 8.11685 11.2378C8.51237 11.4227 8.94347 11.5189 9.38004 11.5199H17.32C18.0333 11.5307 18.727 11.287 19.2768 10.8325C19.8266 10.378 20.1965 9.74244 20.32 9.0399L21.2 4.0399C21.2693 3.6212 21.249 3.19256 21.1404 2.78229C21.0318 2.37203 20.8374 1.98947 20.57 1.6599ZM17.83 2.4999L14.43 5.2599C14.229 5.42191 13.9731 5.4999 13.7159 5.47753C13.4587 5.45516 13.2201 5.33418 13.05 5.1399L10.72 2.4999H17.83ZM18.31 8.6699C18.2696 8.90469 18.1466 9.11732 17.9632 9.26948C17.7799 9.42165 17.5483 9.50336 17.31 9.4999H9.38004C9.23482 9.49868 9.0916 9.46584 8.96036 9.40367C8.82911 9.3415 8.71298 9.25149 8.62004 9.1399C8.52686 9.02889 8.45893 8.89896 8.42094 8.7591C8.38296 8.61924 8.37582 8.47279 8.40004 8.3299L9.20004 3.7999L11.55 6.4599C12.0615 7.04127 12.778 7.40233 13.5496 7.46756C14.3212 7.53279 15.0882 7.29714 15.69 6.8099L19.13 3.9999L18.31 8.6699ZM4.79004 0.499897H1.79004C1.52482 0.499897 1.27047 0.605254 1.08293 0.79279C0.895396 0.980326 0.790039 1.23468 0.790039 1.4999C0.790039 1.76511 0.895396 2.01947 1.08293 2.207C1.27047 2.39454 1.52482 2.4999 1.79004 2.4999H4.79004C5.05526 2.4999 5.30961 2.39454 5.49715 2.207C5.68468 2.01947 5.79004 1.76511 5.79004 1.4999C5.79004 1.23468 5.68468 0.980326 5.49715 0.79279C5.30961 0.605254 5.05526 0.499897 4.79004 0.499897Z" fill="#797EFF"/>
</svg>