<svg xmlns="http://www.w3.org/2000/svg" viewBox="0 0 18 18" fill="none">
<path d="M1.49976 10.3336H7.33374C7.39991 10.3337 7.46404 10.3531 7.51831 10.3893L7.56909 10.4313C7.6315 10.4938 7.66675 10.5783 7.66675 10.6667V16.4997C7.66675 16.566 7.64735 16.6308 7.61108 16.6852L7.56909 16.736C7.50667 16.7983 7.42195 16.8336 7.33374 16.8336H1.49976C1.43352 16.8336 1.36948 16.8132 1.31519 16.777L1.2644 16.736C1.20189 16.6735 1.16675 16.5881 1.16675 16.4997V10.6667L1.17358 10.6012C1.1821 10.5587 1.19842 10.5182 1.22241 10.4821L1.2644 10.4313C1.32684 10.3689 1.41147 10.3337 1.49976 10.3336ZM10.6667 10.3336H16.4998C16.5661 10.3336 16.6309 10.353 16.6853 10.3893L16.7361 10.4313C16.7984 10.4938 16.8337 10.5784 16.8337 10.6667V16.4997C16.8337 16.5881 16.7986 16.6735 16.7361 16.736C16.6736 16.7985 16.5882 16.8336 16.4998 16.8336H10.6667C10.6005 16.8336 10.5365 16.8132 10.4822 16.777L10.4314 16.736C10.3689 16.6735 10.3337 16.5881 10.3337 16.4997V10.6667C10.3337 10.6005 10.3533 10.5364 10.3894 10.4821L10.4314 10.4313C10.4939 10.3688 10.5783 10.3336 10.6667 10.3336ZM1.83374 16.1667H6.99976V10.9997H1.83374V16.1667ZM10.9998 16.1667H16.1667V10.9997H10.9998V16.1667ZM1.49976 1.16666H7.33374C7.39985 1.16672 7.46408 1.18621 7.51831 1.22232L7.56909 1.26431C7.63153 1.32675 7.66666 1.41138 7.66675 1.49966V7.33365C7.66668 7.39976 7.6472 7.46398 7.61108 7.51822L7.56909 7.569C7.50666 7.63144 7.42203 7.66657 7.33374 7.66666H1.49976C1.43364 7.66659 1.36942 7.64711 1.31519 7.61099L1.2644 7.569C1.20197 7.50657 1.16683 7.42194 1.16675 7.33365V1.49966L1.17358 1.43423C1.18214 1.39177 1.1984 1.35115 1.22241 1.31509L1.2644 1.26431C1.31117 1.21755 1.37044 1.18636 1.43433 1.17349L1.49976 1.16666ZM10.6667 1.16666H16.4998C16.5661 1.16666 16.6309 1.18605 16.6853 1.22232L16.7361 1.26431C16.7984 1.32673 16.8337 1.41145 16.8337 1.49966V7.33365C16.8337 7.39989 16.8133 7.46392 16.7771 7.51822L16.7361 7.569C16.6736 7.63151 16.5882 7.66666 16.4998 7.66666H10.6667C10.6006 7.66666 10.5365 7.64707 10.4822 7.61099L10.4314 7.569C10.369 7.50656 10.3338 7.42194 10.3337 7.33365V1.49966C10.3338 1.43349 10.3532 1.36936 10.3894 1.31509L10.4314 1.26431C10.4939 1.2019 10.5784 1.16666 10.6667 1.16666ZM1.83374 6.99966H6.99976V1.83365H1.83374V6.99966ZM10.9998 6.99966H16.1667V1.83365H10.9998V6.99966Z" fill="#797EFF" stroke="#797EFF"/>
</svg>