<svg xmlns="http://www.w3.org/2000/svg" viewBox="0 0 14 18" fill="none">
<path d="M2.83325 1.16667H11.1663C11.6304 1.16667 12.078 1.32823 12.4338 1.6198L12.5803 1.75261C12.9554 2.12768 13.1663 2.63624 13.1663 3.16667V14.8337C13.1662 15.2977 13.0056 15.7454 12.7141 16.1012L12.5803 16.2477C12.2053 16.6226 11.6965 16.8337 11.1663 16.8337H2.83325C2.36913 16.8337 1.92156 16.6721 1.56567 16.3805L1.41919 16.2477C1.04419 15.8727 0.833338 15.364 0.833252 14.8337V12.3337C0.833252 12.2673 0.852648 12.2025 0.888916 12.1481L0.930908 12.0973C0.993328 12.035 1.07805 11.9998 1.16626 11.9997C1.2327 11.9997 1.29737 12.0199 1.35181 12.0563L1.40259 12.0973C1.4651 12.1598 1.50024 12.2453 1.50024 12.3337V14.8337C1.50032 15.143 1.60762 15.4412 1.802 15.6784L1.89087 15.776C2.1409 16.026 2.47971 16.1667 2.83325 16.1667H11.1663C11.4757 16.1667 11.7747 16.0594 12.012 15.8649L12.1096 15.776C12.3595 15.5261 12.5002 15.1871 12.5002 14.8337V3.16667C12.5002 2.85723 12.3919 2.55922 12.1975 2.32195L12.1096 2.22429C11.8596 1.97424 11.5199 1.83366 11.1663 1.83366H2.83325C2.52388 1.83366 2.22577 1.94108 1.98853 2.13542L1.89087 2.22429C1.64082 2.47434 1.50024 2.81305 1.50024 3.16667V5.66667C1.50024 5.73293 1.47981 5.7969 1.4436 5.85124L1.40259 5.90202C1.34008 5.96454 1.25466 5.99968 1.16626 5.99968C1.10008 5.99961 1.03596 5.98019 0.981689 5.94402L0.930908 5.90202C0.868498 5.83953 0.833252 5.755 0.833252 5.66667V3.16667L0.843018 2.96941C0.881922 2.57676 1.03628 2.20427 1.28638 1.89909L1.41919 1.75261C1.74748 1.42432 2.17799 1.22182 2.63599 1.17644L2.83325 1.16667ZM6.16626 5.32976C6.18851 5.32976 6.21095 5.33225 6.23267 5.33659L6.29517 5.35515C6.33595 5.37204 6.37331 5.3972 6.40454 5.42839L9.73267 8.75749C9.74665 8.77246 9.75978 8.78814 9.77075 8.80534L9.80005 8.86394L9.80396 8.8737C9.82886 8.93448 9.83498 9.0006 9.82251 9.06413L9.80396 9.12663L9.80005 9.1364C9.78515 9.17464 9.76324 9.20963 9.7356 9.23991L6.40454 12.571L6.40356 12.5729C6.38808 12.5885 6.37094 12.6027 6.35278 12.6149L6.29517 12.6462C6.25455 12.6631 6.21027 12.6716 6.16626 12.6716C6.14422 12.6715 6.12233 12.669 6.10083 12.6647L6.03833 12.6462C6.01809 12.6377 5.99883 12.6271 5.98071 12.6149L5.92993 12.5729L5.927 12.57L5.88501 12.5192L5.85376 12.4616C5.83689 12.4211 5.82841 12.3775 5.82837 12.3337C5.82837 12.3117 5.83094 12.2896 5.83521 12.2682L5.85376 12.2048C5.86221 12.1845 5.87282 12.1653 5.88501 12.1471L5.927 12.0964H5.92798L7.84399 10.1872L8.70239 9.33366H1.16626C1.10002 9.3336 1.03599 9.31326 0.981689 9.27702L0.930908 9.23601C0.868396 9.17349 0.833252 9.08808 0.833252 8.99968C0.833317 8.93357 0.852803 8.86934 0.888916 8.81511L0.930908 8.76433C0.993344 8.70189 1.07797 8.66676 1.16626 8.66667H8.70239L7.84399 7.81218L5.92798 5.90398C5.91274 5.88865 5.89895 5.87204 5.88696 5.85417L5.85571 5.79558C5.83879 5.75472 5.83032 5.7109 5.83032 5.66667C5.83032 5.64466 5.83193 5.62273 5.83618 5.60124L5.85571 5.53777C5.86424 5.51721 5.87463 5.49757 5.88696 5.47917L5.92896 5.42839C5.94459 5.4128 5.96146 5.39858 5.97974 5.3864L6.03735 5.35515C6.07811 5.33827 6.12215 5.3298 6.16626 5.32976Z" fill="black" stroke="#06174A"/>
</svg>