<svg xmlns="http://www.w3.org/2000/svg" viewBox="0 0 16 18" fill="none">
<path d="M3 1.16667H13C13.4642 1.16667 13.9117 1.32813 14.2676 1.6198L14.4141 1.75261C14.7891 2.12768 15 2.63624 15 3.16667V12.3337C14.9999 12.7978 14.8386 13.2454 14.5469 13.6012L14.4141 13.7477C14.039 14.1227 13.5304 14.3337 13 14.3337H11.04L10.8994 14.4538L8.21582 16.7536C8.17059 16.7921 8.11638 16.8175 8.05859 16.8278L8 16.8337H7.99707C7.97503 16.8338 7.95317 16.831 7.93164 16.8268L7.86914 16.8083C7.84895 16.8 7.82964 16.79 7.81152 16.778L7.76074 16.737L5.5127 14.4801L5.36621 14.3337H3C2.53588 14.3337 2.08831 14.1721 1.73242 13.8805L1.58594 13.7477C1.21094 13.3727 1.00009 12.864 1 12.3337V3.16667L1.00977 2.96941C1.04867 2.57676 1.20303 2.20427 1.45312 1.89909L1.58594 1.75261C1.91422 1.42432 2.34474 1.22182 2.80273 1.17644L3 1.16667ZM3 1.83366C2.69063 1.83366 2.39252 1.94108 2.15527 2.13542L2.05762 2.22429C1.80757 2.47434 1.66699 2.81305 1.66699 3.16667V12.3337C1.66708 12.6872 1.80765 13.0261 2.05762 13.276C2.30765 13.526 2.64645 13.6667 3 13.6667H5.50293C5.52493 13.6665 5.54687 13.6684 5.56836 13.6725L5.63086 13.6911C5.65115 13.6994 5.67028 13.7103 5.68848 13.7223L5.73926 13.7634L7.6875 15.7194L8.01465 16.0485L8.36719 15.7467L10.7002 13.7467C10.7454 13.7081 10.7996 13.682 10.8574 13.6716L10.917 13.6667H13C13.3093 13.6667 13.6075 13.5592 13.8447 13.3649L13.9424 13.276C14.1924 13.0261 14.3329 12.6872 14.333 12.3337V3.16667C14.333 2.8573 14.2256 2.55919 14.0312 2.32195L13.9424 2.22429C13.6923 1.97424 13.3536 1.83366 13 1.83366H3Z" fill="currentColor" stroke="currentColor"/>
</svg>