<svg xmlns="http://www.w3.org/2000/svg" viewBox="0 0 18 18" fill="none">
<path d="M8.99976 1.16667C10.9468 1.16889 12.8182 1.89523 14.2546 3.19597L14.5359 3.46355C15.9127 4.84033 16.7249 6.67657 16.823 8.61198L16.8337 9.00066C16.8336 10.453 16.4294 11.8747 15.6697 13.1081L15.5134 13.3522C14.7065 14.5599 13.5804 15.5172 12.2634 16.1208L11.9978 16.237C10.656 16.7928 9.18784 16.9638 7.75757 16.7341L7.47144 16.6833C6.04686 16.3998 4.73124 15.7258 3.66968 14.7399L3.46069 14.5387C2.4337 13.5116 1.7136 12.2206 1.37866 10.8112L1.31714 10.528C1.03383 9.10347 1.1525 7.63011 1.65698 6.27214L1.76343 6.00261C2.31929 4.66065 3.23592 3.50091 4.40991 2.65202L4.64819 2.48698C5.85578 1.6801 7.26215 1.22523 8.70972 1.17155L8.99976 1.16667ZM11.7429 2.37859C10.5152 1.87004 9.17168 1.71417 7.86304 1.92448L7.60229 1.97136C6.2121 2.24789 4.93465 2.93002 3.93237 3.9323C2.99278 4.87189 2.33461 6.05308 2.02808 7.34245L1.97144 7.60222C1.71225 8.90552 1.82042 10.2534 2.28198 11.4958L2.37866 11.7428C2.88718 12.9705 3.72661 14.0307 4.80054 14.8073L5.01831 14.9587C6.12331 15.697 7.4105 16.1128 8.73511 16.1618L8.99976 16.1667H9.00073C10.9006 16.1645 12.7218 15.4085 14.0652 14.0651C15.3246 12.8057 16.0682 11.1265 16.158 9.35612L16.1667 9.00066V8.99968C16.1667 7.67098 15.7973 6.37027 15.1023 5.24187L14.9587 5.01823C14.2205 3.9135 13.1908 3.03718 11.9861 2.48503L11.7429 2.37859ZM8.99976 9.08366C9.06614 9.08366 9.1309 9.103 9.1853 9.13933L9.23608 9.18132C9.29839 9.2438 9.33374 9.32842 9.33374 9.41667V11.9167C9.33374 12.0049 9.29839 12.0895 9.23608 12.152C9.17357 12.2145 9.08816 12.2497 8.99976 12.2497C8.93358 12.2496 8.86945 12.2302 8.81519 12.194L8.7644 12.152C8.702 12.0895 8.66675 12.005 8.66675 11.9167V9.41667C8.66675 9.35054 8.68634 9.28638 8.72241 9.2321L8.7644 9.18132C8.82684 9.11889 8.91147 9.08375 8.99976 9.08366ZM8.99976 5.74968C9.10757 5.74968 9.21216 5.7825 9.30054 5.84148L9.38354 5.90886C9.48493 6.01041 9.54175 6.14817 9.54175 6.29167C9.54175 6.37201 9.52403 6.45107 9.48999 6.52312L9.45093 6.59245C9.4063 6.65924 9.34736 6.71552 9.27905 6.75652L9.20776 6.79167C9.13343 6.82246 9.0531 6.83662 8.97339 6.83269L8.89429 6.82292C8.81557 6.80725 8.74146 6.7746 8.67749 6.72722L8.61694 6.67448C8.56018 6.61767 8.51684 6.54928 8.48999 6.47429L8.46851 6.39714C8.45286 6.3183 8.45497 6.23717 8.47437 6.15984L8.49976 6.08464C8.53055 6.0103 8.57733 5.94389 8.63647 5.8903L8.69897 5.84148C8.78796 5.78202 8.89274 5.74974 8.99976 5.74968Z" fill="#798BA3" stroke="#798BA3"/>
</svg>