<svg width="36" height="36" viewBox="0 0 36 36" fill="none" xmlns="http://www.w3.org/2000/svg">
<g filter="url(#filter0_i_1761_3007)">
<rect width="36" height="36" rx="18" fill="#0D0F21"/>
<path d="M15.345 18.5325L19.59 22.77C19.6597 22.8403 19.7426 22.8961 19.834 22.9341C19.9254 22.9722 20.0234 22.9918 20.1225 22.9918C20.2215 22.9918 20.3195 22.9722 20.4109 22.9341C20.5023 22.8961 20.5852 22.8403 20.655 22.77C20.7946 22.6295 20.873 22.4394 20.873 22.2412C20.873 22.0431 20.7946 21.853 20.655 21.7125L16.9425 17.9625L20.655 14.25C20.7946 14.1095 20.873 13.9194 20.873 13.7212C20.873 13.5231 20.7946 13.333 20.655 13.1925C20.5855 13.1216 20.5027 13.0652 20.4113 13.0266C20.3198 12.988 20.2217 12.9679 20.1225 12.9675C20.0232 12.9679 19.9251 12.988 19.8337 13.0266C19.7422 13.0652 19.6594 13.1216 19.59 13.1925L15.345 17.43C15.2688 17.5002 15.2081 17.5854 15.1665 17.6803C15.125 17.7752 15.1035 17.8776 15.1035 17.9812C15.1035 18.0848 15.125 18.1873 15.1665 18.2821C15.2081 18.377 15.2688 18.4622 15.345 18.5325Z" fill="white"/>
</g>
<defs>
<filter id="filter0_i_1761_3007" x="0" y="0" width="36" height="38" filterUnits="userSpaceOnUse" color-interpolation-filters="sRGB">
<feFlood flood-opacity="0" result="BackgroundImageFix"/>
<feBlend mode="normal" in="SourceGraphic" in2="BackgroundImageFix" result="shape"/>
<feColorMatrix in="SourceAlpha" type="matrix" values="0 0 0 0 0 0 0 0 0 0 0 0 0 0 0 0 0 0 127 0" result="hardAlpha"/>
<feOffset dy="2"/>
<feGaussianBlur stdDeviation="5"/>
<feComposite in2="hardAlpha" operator="arithmetic" k2="-1" k3="1"/>
<feColorMatrix type="matrix" values="0 0 0 0 0.0156863 0 0 0 0 0.0156863 0 0 0 0 0.0627451 0 0 0 1 0"/>
<feBlend mode="normal" in2="shape" result="effect1_innerShadow_1761_3007"/>
</filter>
</defs>
</svg>
