<svg xmlns="http://www.w3.org/2000/svg" viewBox="0 0 19 19" fill="none">
<path d="M13.5833 6.49913C12.8373 6.49881 12.1028 6.68335 11.4455 7.03624C11.3855 6.87826 11.2788 6.74227 11.1397 6.64633C11.0006 6.5504 10.8356 6.49906 10.6666 6.49913H7.33331C7.22386 6.49907 7.11546 6.52058 7.01433 6.56244C6.9132 6.60429 6.82131 6.66568 6.74391 6.74307C6.66652 6.82046 6.60514 6.91236 6.56328 7.01349C6.52143 7.11462 6.49991 7.22301 6.49998 7.33246V17.3325C6.49991 17.4419 6.52142 17.5503 6.56328 17.6514C6.60514 17.7526 6.66652 17.8445 6.74391 17.9219C6.82131 17.9993 6.9132 18.0606 7.01433 18.1025C7.11546 18.1444 7.22386 18.1659 7.33331 18.1658H10.6666C10.7761 18.1659 10.8845 18.1444 10.9856 18.1025C11.0868 18.0606 11.1786 17.9993 11.256 17.9219C11.3334 17.8445 11.3948 17.7526 11.4367 17.6514C11.4785 17.5503 11.5 17.4419 11.5 17.3325V12.7491C11.5 12.5281 11.5878 12.3162 11.7441 12.1599C11.9003 12.0036 12.1123 11.9158 12.3333 11.9158C12.5543 11.9158 12.7663 12.0036 12.9226 12.1599C13.0788 12.3162 13.1666 12.5281 13.1666 12.7491V17.3325C13.1666 17.4419 13.1881 17.5503 13.2299 17.6514C13.2718 17.7526 13.3332 17.8445 13.4106 17.9219C13.488 17.9993 13.5799 18.0606 13.681 18.1025C13.7821 18.1444 13.8905 18.1659 14 18.1658H17.3333C17.4428 18.1659 17.5512 18.1444 17.6523 18.1025C17.7534 18.0606 17.8453 17.9993 17.9227 17.9219C18.0001 17.8445 18.0615 17.7526 18.1033 17.6514C18.1452 17.5503 18.1667 17.4419 18.1666 17.3325V11.0825C18.1651 9.86735 17.6818 8.70244 16.8225 7.84323C15.9633 6.98401 14.7984 6.50064 13.5833 6.49913ZM16.5 16.4991H14.8333V12.7491C14.8333 12.0861 14.5699 11.4502 14.1011 10.9814C13.6322 10.5125 12.9964 10.2491 12.3333 10.2491C11.6703 10.2491 11.0344 10.5125 10.5655 10.9814C10.0967 11.4502 9.83331 12.0861 9.83331 12.7491V16.4991H8.16664V8.1658H9.83331V8.75174C9.83341 8.92441 9.88712 9.09278 9.98702 9.23362C10.0869 9.37445 10.2281 9.48079 10.391 9.53796C10.5539 9.59513 10.7306 9.6003 10.8966 9.55276C11.0626 9.50523 11.2097 9.40732 11.3177 9.27257C11.6917 8.7976 12.2046 8.45127 12.785 8.28194C13.3653 8.11261 13.984 8.12873 14.5547 8.32806C15.1255 8.52738 15.6197 8.89995 15.9684 9.39376C16.3172 9.88756 16.503 10.4779 16.5 11.0825V16.4991ZM4.83331 6.49913H1.49998C1.39052 6.49907 1.28213 6.52058 1.181 6.56244C1.07987 6.60429 0.987975 6.66568 0.910581 6.74307C0.833186 6.82046 0.771806 6.91236 0.729949 7.01349C0.688092 7.11462 0.66658 7.22301 0.666642 7.33246V17.3325C0.666579 17.4419 0.68809 17.5503 0.729947 17.6514C0.771803 17.7526 0.833184 17.8445 0.910578 17.9219C0.987973 17.9993 1.07986 18.0606 1.181 18.1025C1.28213 18.1444 1.39052 18.1659 1.49998 18.1658H4.83331C4.94276 18.1659 5.05115 18.1444 5.15229 18.1025C5.25342 18.0606 5.34531 17.9993 5.42271 17.9219C5.5001 17.8445 5.56148 17.7526 5.60334 17.6514C5.64519 17.5503 5.66671 17.4419 5.66664 17.3325V7.33246C5.66671 7.22301 5.64519 7.11462 5.60334 7.01349C5.56148 6.91236 5.5001 6.82046 5.4227 6.74307C5.34531 6.66568 5.25342 6.60429 5.15229 6.56244C5.05115 6.52058 4.94276 6.49907 4.83331 6.49913ZM3.99998 16.4991H2.33331V8.1658H3.99998V16.4991ZM3.17885 0.284965C2.81415 0.263135 2.44882 0.315713 2.10508 0.439502C1.76134 0.563292 1.44637 0.755706 1.17932 1.00504C0.912278 1.25438 0.698739 1.55543 0.551691 1.88988C0.404644 2.22433 0.327161 2.5852 0.323956 2.95054C0.320751 3.31588 0.39189 3.67805 0.533046 4.01503C0.674203 4.35202 0.882428 4.65677 1.14506 4.91075C1.40769 5.16473 1.71923 5.36264 2.06075 5.49244C2.40227 5.62225 2.76662 5.68123 3.13164 5.6658H3.15524C3.52091 5.68752 3.88716 5.63445 4.23162 5.50984C4.57608 5.38523 4.89152 5.19169 5.15866 4.94106C5.4258 4.69042 5.63903 4.38794 5.78532 4.05211C5.93161 3.71628 6.00788 3.35415 6.00949 2.98785C6.0111 2.62154 5.938 2.25876 5.79466 1.92166C5.65132 1.58456 5.44075 1.28022 5.17583 1.02725C4.9109 0.774282 4.59717 0.577985 4.25381 0.450358C3.91046 0.322731 3.54468 0.266454 3.17884 0.284965H3.17885ZM3.15525 3.99913H3.13164C2.98753 4.01663 2.84134 4.00311 2.70288 3.95949C2.56443 3.91586 2.43689 3.84314 2.32884 3.74619C2.22079 3.64923 2.13472 3.5303 2.0764 3.39736C2.01808 3.26442 1.98886 3.12055 1.9907 2.97539C1.9907 2.35364 2.45701 1.95162 3.17885 1.95162C3.32443 1.93222 3.47248 1.94423 3.61303 1.98686C3.75358 2.02949 3.88336 2.10174 3.99363 2.19875C4.1039 2.29576 4.19211 2.41527 4.2523 2.54924C4.31249 2.68321 4.34328 2.82852 4.34258 2.97539C4.34258 3.59713 3.87628 3.99913 3.15525 3.99913Z" fill="#06174A"/>
</svg>