<svg xmlns="http://www.w3.org/2000/svg" viewBox="0 0 18 20" fill="none">
<path d="M17.8353 8.33659C17.8005 8.1444 17.6994 7.97052 17.5496 7.84528C17.3997 7.72004 17.2107 7.65141 17.0154 7.65136H9.16668C9.05724 7.65133 8.94886 7.67287 8.84775 7.71474C8.74663 7.75661 8.65475 7.81799 8.57736 7.89538C8.49998 7.97276 8.43859 8.06464 8.39673 8.16576C8.35486 8.26688 8.33332 8.37525 8.33335 8.4847V11.7082C8.33332 11.8176 8.35486 11.926 8.39673 12.0271C8.43859 12.1282 8.49998 12.2201 8.57736 12.2975C8.65475 12.3749 8.74663 12.4363 8.84775 12.4781C8.94886 12.52 9.05724 12.5415 9.16668 12.5415H12.4687C12.2334 12.9386 11.9109 13.277 11.5255 13.5311C10.8212 13.9776 10.0004 14.2053 9.16668 14.1854C8.30208 14.1755 7.46258 13.8933 6.7675 13.3791C6.07242 12.8648 5.55712 12.1445 5.29482 11.3205L5.29458 11.3192C5.00268 10.4637 5.00268 9.53551 5.29458 8.68L5.29478 8.67862C5.55726 7.85487 6.07264 7.13479 6.76771 6.62065C7.46278 6.10652 8.30219 5.82448 9.16668 5.81461C9.64703 5.80359 10.1248 5.88756 10.5726 6.06171C11.0204 6.23586 11.4294 6.49676 11.7761 6.82942C11.9336 6.97989 12.1437 7.06277 12.3614 7.06034C12.5792 7.0579 12.7874 6.97035 12.9415 6.81641L15.3316 4.42626C15.4108 4.34718 15.4732 4.25295 15.5152 4.1492C15.5571 4.04544 15.5777 3.9343 15.5757 3.8224C15.5738 3.71051 15.5493 3.60016 15.5037 3.49795C15.4581 3.39575 15.3924 3.30378 15.3104 3.22754C13.6472 1.66812 11.4465 0.810506 9.16668 0.83333C7.46663 0.8283 5.79898 1.29834 4.35179 2.19045C2.9046 3.08255 1.73544 4.36124 0.976134 5.88231L0.974909 5.88379C0.331182 7.16025 -0.0028013 8.5704 1.7698e-05 10C0.00204538 11.429 0.335783 12.8381 0.974951 14.1162L0.976176 14.1177C1.73547 15.6387 2.90463 16.9174 4.35182 17.8095C5.799 18.7016 7.46664 19.1717 9.16668 19.1667C11.4045 19.2233 13.5792 18.4222 15.2456 16.9275L15.2462 16.9271L15.2469 16.9264L15.247 16.9263L15.2471 16.9262C16.1502 16.0573 16.8617 15.0091 17.3359 13.849C17.81 12.6888 18.0362 11.4424 18.0001 10.1896C18.0005 9.56827 17.9453 8.94812 17.8353 8.33659ZM9.16668 2.5C10.7259 2.48482 12.2483 2.97378 13.5071 3.89404L12.2957 5.105C11.3772 4.46921 10.2837 4.13475 9.16668 4.14795C8.14687 4.15319 7.14687 4.4301 6.26963 4.95018C5.39238 5.47026 4.66957 6.21472 4.17559 7.10693L3.28458 6.41631L2.79708 6.03826C3.46773 4.95313 4.40541 4.05808 5.52055 3.43863C6.63569 2.81918 7.89105 2.49601 9.16668 2.5ZM2.06622 12.4194C1.53345 10.8505 1.53345 9.14952 2.06622 7.58056L3.55141 8.7321C3.36152 9.56643 3.36152 10.4328 3.55141 11.2671L2.06622 12.4194ZM9.16668 17.5C7.89102 17.504 6.63565 17.1808 5.5205 16.5613C4.40535 15.9418 3.46766 15.0467 2.79702 13.9616L3.11236 13.717L4.17559 12.8922C4.66935 13.7847 5.39209 14.5294 6.26937 15.0496C7.14665 15.5699 8.14676 15.8469 9.16668 15.852C10.1214 15.8633 11.0653 15.6489 11.9215 15.2264L13.3312 16.3208C12.0913 17.1197 10.6413 17.5303 9.16668 17.5ZM14.6049 15.1994L14.4524 15.081L13.3046 14.19C13.9065 13.5398 14.311 12.7318 14.471 11.8604C14.4934 11.7401 14.489 11.6164 14.4581 11.498C14.4273 11.3796 14.3707 11.2694 14.2925 11.1753C14.2143 11.0813 14.1163 11.0056 14.0055 10.9536C13.8947 10.9017 13.7739 10.8748 13.6515 10.8749H10V9.31803H16.2907C16.3192 9.60611 16.3334 9.89746 16.3334 10.1896C16.3822 12.0136 15.768 13.7935 14.6049 15.1994H14.6049Z" fill="#06174A"/>
</svg>