<svg xmlns="http://www.w3.org/2000/svg" viewBox="0 0 20 18" fill="none">
<path d="M7.99992 10H11.9999C12.2651 10 12.5195 9.89464 12.707 9.70711C12.8946 9.51957 12.9999 9.26522 12.9999 9C12.9999 8.73478 12.8946 8.48043 12.707 8.29289C12.5195 8.10536 12.2651 8 11.9999 8H7.99992C7.73471 8 7.48035 8.10536 7.29282 8.29289C7.10528 8.48043 6.99992 8.73478 6.99992 9C6.99992 9.26522 7.10528 9.51957 7.29282 9.70711C7.48035 9.89464 7.73471 10 7.99992 10ZM16.9999 0H2.99992C2.29638 0.00545837 1.61714 0.258013 1.08093 0.713516C0.544725 1.16902 0.185667 1.79849 0.0665261 2.49189C-0.0526151 3.18529 0.0757399 3.89851 0.429153 4.50687C0.782567 5.11523 1.33855 5.58002 1.99992 5.82V15C1.99992 15.7956 2.316 16.5587 2.8786 17.1213C3.44121 17.6839 4.20428 18 4.99992 18H14.9999C15.7956 18 16.5586 17.6839 17.1212 17.1213C17.6839 16.5587 17.9999 15.7956 17.9999 15V5.82C18.6613 5.58002 19.2173 5.11523 19.5707 4.50687C19.9241 3.89851 20.0525 3.18529 19.9333 2.49189C19.8142 1.79849 19.4551 1.16902 18.9189 0.713516C18.3827 0.258013 17.7035 0.00545837 16.9999 0ZM15.9999 15C15.9999 15.2652 15.8946 15.5196 15.707 15.7071C15.5195 15.8946 15.2651 16 14.9999 16H4.99992C4.73471 16 4.48035 15.8946 4.29282 15.7071C4.10528 15.5196 3.99992 15.2652 3.99992 15V6H15.9999V15ZM16.9999 4H2.99992C2.73471 4 2.48035 3.89464 2.29282 3.70711C2.10528 3.51957 1.99992 3.26522 1.99992 3C1.99992 2.73478 2.10528 2.48043 2.29282 2.29289C2.48035 2.10536 2.73471 2 2.99992 2H16.9999C17.2651 2 17.5195 2.10536 17.707 2.29289C17.8946 2.48043 17.9999 2.73478 17.9999 3C17.9999 3.26522 17.8946 3.51957 17.707 3.70711C17.5195 3.89464 17.2651 4 16.9999 4Z" fill="currentColor"/>
</svg>