<svg xmlns="http://www.w3.org/2000/svg" viewBox="0 0 20 20" fill="none">
<path d="M4.16663 14.9998H7.69996C7.80963 15.0004 7.91835 14.9794 8.01988 14.9379C8.12141 14.8965 8.21376 14.8354 8.29163 14.7581L14.0583 8.98312L16.425 6.66645C16.5031 6.58898 16.5651 6.49682 16.6074 6.39527C16.6497 6.29372 16.6715 6.1848 16.6715 6.07479C16.6715 5.96478 16.6497 5.85586 16.6074 5.75431C16.5651 5.65276 16.5031 5.56059 16.425 5.48312L12.8916 1.90812C12.8142 1.83001 12.722 1.76802 12.6204 1.72571C12.5189 1.6834 12.41 1.66162 12.3 1.66162C12.19 1.66162 12.081 1.6834 11.9795 1.72571C11.8779 1.76802 11.7858 1.83001 11.7083 1.90812L9.35829 4.26645L3.57496 10.0415C3.49772 10.1193 3.43662 10.2117 3.39515 10.3132C3.35368 10.4147 3.33266 10.5234 3.33329 10.6331V14.1665C3.33329 14.3875 3.42109 14.5994 3.57737 14.7557C3.73365 14.912 3.94561 14.9998 4.16663 14.9998ZM12.3 3.67479L14.6583 6.03312L13.475 7.21645L11.1166 4.85812L12.3 3.67479ZM4.99996 10.9748L9.94163 6.03312L12.3 8.39145L7.35829 13.3331H4.99996V10.9748ZM17.5 16.6665H2.49996C2.27895 16.6665 2.06698 16.7543 1.9107 16.9105C1.75442 17.0668 1.66663 17.2788 1.66663 17.4998C1.66663 17.7208 1.75442 17.9328 1.9107 18.089C2.06698 18.2453 2.27895 18.3331 2.49996 18.3331H17.5C17.721 18.3331 17.9329 18.2453 18.0892 18.089C18.2455 17.9328 18.3333 17.7208 18.3333 17.4998C18.3333 17.2788 18.2455 17.0668 18.0892 16.9105C17.9329 16.7543 17.721 16.6665 17.5 16.6665Z" fill="currentColor"/>
</svg>