<svg xmlns="http://www.w3.org/2000/svg" viewBox="0 0 14 20" fill="none">
<path d="M11 0C11.7957 0 12.5585 0.316302 13.1211 0.878906C13.6837 1.44152 14 2.20435 14 3V19C14.0007 19.1761 13.9549 19.3492 13.8672 19.502C13.7794 19.6547 13.6526 19.782 13.5 19.8701C13.3476 19.9565 13.1752 20.0012 13 20C12.8249 20.0012 12.6524 19.9565 12.5 19.8701L7.00001 16.6904L1.50001 19.8701C1.348 19.9579 1.17552 20.0039 1.00001 20.0039C0.824492 20.0039 0.652013 19.9579 0.500008 19.8701C0.347404 19.782 0.220624 19.6547 0.13282 19.502C0.0451312 19.3492 -0.00069121 19.1761 7.88104e-06 19V3C7.88104e-06 2.20435 0.31631 1.44151 0.878914 0.878906C1.44152 0.316301 2.20436 4.1709e-06 3.00001 0H11Z" fill="currentColor"/>
</svg>

