<svg xmlns="http://www.w3.org/2000/svg" viewBox="0 0 12 14" fill="none">
<path d="M11.3337 4.96001C11.3267 4.89877 11.3133 4.83843 11.2937 4.78001V4.72001C11.2616 4.65146 11.2188 4.58845 11.167 4.53334L7.16699 0.533343C7.11188 0.481488 7.04887 0.438731 6.98033 0.406677H6.92033C6.8526 0.367838 6.77781 0.342906 6.70033 0.333344H2.66699C2.13656 0.333344 1.62785 0.544057 1.25278 0.91913C0.877706 1.2942 0.666992 1.80291 0.666992 2.33334V11.6667C0.666992 12.1971 0.877706 12.7058 1.25278 13.0809C1.62785 13.456 2.13656 13.6667 2.66699 13.6667H9.33366C9.86409 13.6667 10.3728 13.456 10.7479 13.0809C11.1229 12.7058 11.3337 12.1971 11.3337 11.6667V5.00001C11.3337 5.00001 11.3337 5.00001 11.3337 4.96001ZM7.33366 2.60668L9.06032 4.33334H8.00033C7.82351 4.33334 7.65394 4.26311 7.52892 4.13808C7.4039 4.01306 7.33366 3.84349 7.33366 3.66668V2.60668ZM10.0003 11.6667C10.0003 11.8435 9.93009 12.0131 9.80506 12.1381C9.68004 12.2631 9.51047 12.3333 9.33366 12.3333H2.66699C2.49018 12.3333 2.32061 12.2631 2.19559 12.1381C2.07056 12.0131 2.00033 11.8435 2.00033 11.6667V2.33334C2.00033 2.15653 2.07056 1.98696 2.19559 1.86194C2.32061 1.73691 2.49018 1.66668 2.66699 1.66668H6.00033V3.66668C6.00033 4.19711 6.21104 4.70582 6.58611 5.08089C6.96118 5.45596 7.46989 5.66668 8.00033 5.66668H10.0003V11.6667Z" fill="currentColor"/>
</svg>