<svg xmlns="http://www.w3.org/2000/svg" viewBox="0 0 16 22" fill="none">
<path d="M14.9917 20.002H13.9917V18.335C13.9886 17.7627 13.8873 17.1952 13.6921 16.6572C13.6812 16.6279 13.6697 16.6006 13.6562 16.5727C13.4943 16.1311 13.2705 15.7147 12.9917 15.3359L11.5918 13.4687C11.2034 12.9486 10.9929 12.3171 10.9917 11.668V10.6582C10.994 9.86308 11.3096 9.10096 11.8701 8.53706L12.5273 7.87983C13.291 7.11208 13.7815 6.11493 13.9236 5.04145C13.9242 5.02754 13.9316 5.01594 13.9316 5.0019L13.9288 4.98817C13.9636 4.77525 13.9846 4.56031 13.9917 4.34468V2.00195H14.9917C15.2569 2.00195 15.5113 1.8966 15.6988 1.70906C15.8864 1.52152 15.9917 1.26717 15.9917 1.00195C15.9917 0.736737 15.8864 0.482383 15.6988 0.294846C15.5113 0.10731 15.2569 0.00195313 14.9917 0.00195312H0.991709C0.726493 0.00195313 0.472139 0.10731 0.284602 0.294846C0.097066 0.482383 -0.00829077 0.736737 -0.00829077 1.00195C-0.00829077 1.26717 0.097066 1.52152 0.284602 1.70906C0.472139 1.8966 0.726493 2.00195 0.991709 2.00195H1.99171V4.34468C1.99881 4.56031 2.01981 4.77525 2.05458 4.98817L2.05176 5.00195C2.05176 5.01595 2.0592 5.02759 2.05976 5.0415C2.20192 6.11497 2.69245 7.11213 3.45606 7.87988L4.11329 8.53711C4.67378 9.101 4.9894 9.8631 4.9917 10.6582V11.668C4.9904 12.317 4.78015 12.9484 4.39209 13.4687L2.99121 15.3359C2.71245 15.7149 2.48878 16.1314 2.32684 16.5731C2.31354 16.6008 2.30212 16.6277 2.29132 16.6568C2.09618 17.1949 1.99483 17.7625 1.9917 18.335V20.002H0.991699C0.726483 20.002 0.472129 20.1073 0.284592 20.2948C0.097056 20.4824 -0.00830078 20.7367 -0.00830078 21.002C-0.00830078 21.2672 0.097056 21.5215 0.284592 21.7091C0.472129 21.8966 0.726483 22.002 0.991699 22.002H14.9917C15.2569 22.002 15.5113 21.8966 15.6988 21.7091C15.8863 21.5215 15.9917 21.2672 15.9917 21.002C15.9917 20.7367 15.8863 20.4824 15.6988 20.2948C15.5113 20.1073 15.2569 20.002 14.9917 20.002ZM3.9917 4.00195V2.00195H11.9917V4.00195H3.9917ZM4.87012 6.46582C4.72921 6.32426 4.60294 6.16885 4.49323 6.00195H11.4902C11.3805 6.16885 11.2542 6.32426 11.1133 6.46582L10.456 7.12305C9.67602 7.8985 9.17584 8.91122 9.03418 10.002H6.94918C6.80755 8.91119 6.30738 7.89843 5.52734 7.12295L4.87012 6.46582ZM5.99219 14.668C6.57081 13.8926 6.91391 12.9671 6.98047 12.002H9.00293C9.06944 12.9672 9.41273 13.8928 9.9917 14.668L10.9918 16.002H4.99133L5.99219 14.668ZM11.9917 20.002H3.9917V18.335C3.99448 18.2235 4.00357 18.1124 4.01892 18.002H11.9645C11.9798 18.1124 11.9889 18.2235 11.9917 18.335V20.002Z" fill="currentColor"/>
</svg>